<mxfile host="Electron" agent="Mozilla/5.0 (Macintosh; Intel Mac OS X 10_15_7) AppleWebKit/537.36 (KHTML, like Gecko) draw.io/26.2.15 Chrome/134.0.6998.205 Electron/35.2.1 Safari/537.36" version="26.2.15">
  <diagram name="Page-1" id="XdLZLVG_TSDOhy-pS7y8">
    <mxGraphModel dx="920" dy="573" grid="1" gridSize="10" guides="1" tooltips="1" connect="1" arrows="1" fold="1" page="1" pageScale="1" pageWidth="850" pageHeight="1100" math="0" shadow="0">
      <root>
        <mxCell id="0" />
        <mxCell id="1" parent="0" />
        <mxCell id="DXQPKdHqUTOvbUS4N7-0-32" value="Notifications" style="aspect=fixed;sketch=0;html=1;dashed=0;whitespace=wrap;verticalLabelPosition=bottom;verticalAlign=top;fillColor=#2875E2;strokeColor=#ffffff;points=[[0.005,0.63,0],[0.1,0.2,0],[0.9,0.2,0],[0.5,0,0],[0.995,0.63,0],[0.72,0.99,0],[0.5,1,0],[0.28,0.99,0]];shape=mxgraph.kubernetes.icon2;kubernetesLabel=1;prIcon=deploy;fontSize=10;" vertex="1" parent="1">
          <mxGeometry x="200.00000000000003" y="120" width="41.67" height="40" as="geometry" />
        </mxCell>
        <mxCell id="DXQPKdHqUTOvbUS4N7-0-33" value="" style="aspect=fixed;sketch=0;html=1;dashed=0;whitespace=wrap;verticalLabelPosition=bottom;verticalAlign=top;fillColor=#2875E2;strokeColor=#ffffff;points=[[0.005,0.63,0],[0.1,0.2,0],[0.9,0.2,0],[0.5,0,0],[0.995,0.63,0],[0.72,0.99,0],[0.5,1,0],[0.28,0.99,0]];shape=mxgraph.kubernetes.icon2;kubernetesLabel=1;prIcon=pod" vertex="1" parent="1">
          <mxGeometry x="160" y="80" width="41.67" height="40" as="geometry" />
        </mxCell>
        <mxCell id="DXQPKdHqUTOvbUS4N7-0-34" value="" style="aspect=fixed;sketch=0;html=1;dashed=0;whitespace=wrap;verticalLabelPosition=bottom;verticalAlign=top;fillColor=#2875E2;strokeColor=#ffffff;points=[[0.005,0.63,0],[0.1,0.2,0],[0.9,0.2,0],[0.5,0,0],[0.995,0.63,0],[0.72,0.99,0],[0.5,1,0],[0.28,0.99,0]];shape=mxgraph.kubernetes.icon2;kubernetesLabel=1;prIcon=pod" vertex="1" parent="1">
          <mxGeometry x="240" y="80" width="41.67" height="40" as="geometry" />
        </mxCell>
        <mxCell id="DXQPKdHqUTOvbUS4N7-0-35" style="rounded=0;orthogonalLoop=1;jettySize=auto;html=1;exitX=0.9;exitY=0.2;exitDx=0;exitDy=0;exitPerimeter=0;entryX=0.28;entryY=0.99;entryDx=0;entryDy=0;entryPerimeter=0;strokeColor=default;endArrow=none;startFill=0;" edge="1" parent="1" source="DXQPKdHqUTOvbUS4N7-0-32" target="DXQPKdHqUTOvbUS4N7-0-34">
          <mxGeometry relative="1" as="geometry" />
        </mxCell>
        <mxCell id="DXQPKdHqUTOvbUS4N7-0-36" style="rounded=0;orthogonalLoop=1;jettySize=auto;html=1;exitX=0.1;exitY=0.2;exitDx=0;exitDy=0;exitPerimeter=0;entryX=0.72;entryY=0.99;entryDx=0;entryDy=0;entryPerimeter=0;endArrow=none;startFill=0;" edge="1" parent="1" source="DXQPKdHqUTOvbUS4N7-0-32" target="DXQPKdHqUTOvbUS4N7-0-33">
          <mxGeometry relative="1" as="geometry" />
        </mxCell>
        <mxCell id="DXQPKdHqUTOvbUS4N7-0-42" value="Common Redis" style="aspect=fixed;sketch=0;html=1;dashed=0;whitespace=wrap;verticalLabelPosition=bottom;verticalAlign=top;fillColor=#2875E2;strokeColor=#ffffff;points=[[0.005,0.63,0],[0.1,0.2,0],[0.9,0.2,0],[0.5,0,0],[0.995,0.63,0],[0.72,0.99,0],[0.5,1,0],[0.28,0.99,0]];shape=mxgraph.kubernetes.icon2;prIcon=pv;fontSize=10;" vertex="1" parent="1">
          <mxGeometry x="281.05" y="159" width="42.72" height="41" as="geometry" />
        </mxCell>
        <mxCell id="DXQPKdHqUTOvbUS4N7-0-43" value="PostgreSQL" style="aspect=fixed;sketch=0;html=1;dashed=0;whitespace=wrap;verticalLabelPosition=bottom;verticalAlign=top;fillColor=#2875E2;strokeColor=#ffffff;points=[[0.005,0.63,0],[0.1,0.2,0],[0.9,0.2,0],[0.5,0,0],[0.995,0.63,0],[0.72,0.99,0],[0.5,1,0],[0.28,0.99,0]];shape=mxgraph.kubernetes.icon2;prIcon=pv;fontSize=7;" vertex="1" parent="1">
          <mxGeometry x="200.42" y="42" width="39.58" height="38" as="geometry" />
        </mxCell>
        <mxCell id="DXQPKdHqUTOvbUS4N7-0-44" style="rounded=0;orthogonalLoop=1;jettySize=auto;html=1;exitX=0.1;exitY=0.2;exitDx=0;exitDy=0;exitPerimeter=0;entryX=0.72;entryY=0.99;entryDx=0;entryDy=0;entryPerimeter=0;endArrow=none;startFill=0;" edge="1" parent="1" source="DXQPKdHqUTOvbUS4N7-0-34" target="DXQPKdHqUTOvbUS4N7-0-43">
          <mxGeometry relative="1" as="geometry" />
        </mxCell>
        <mxCell id="DXQPKdHqUTOvbUS4N7-0-45" style="rounded=0;orthogonalLoop=1;jettySize=auto;html=1;exitX=0.9;exitY=0.2;exitDx=0;exitDy=0;exitPerimeter=0;entryX=0.28;entryY=0.99;entryDx=0;entryDy=0;entryPerimeter=0;endArrow=none;startFill=0;" edge="1" parent="1" source="DXQPKdHqUTOvbUS4N7-0-33" target="DXQPKdHqUTOvbUS4N7-0-43">
          <mxGeometry relative="1" as="geometry" />
        </mxCell>
        <mxCell id="DXQPKdHqUTOvbUS4N7-0-46" value="Billing" style="aspect=fixed;sketch=0;html=1;dashed=0;whitespace=wrap;verticalLabelPosition=bottom;verticalAlign=top;fillColor=#2875E2;strokeColor=#ffffff;points=[[0.005,0.63,0],[0.1,0.2,0],[0.9,0.2,0],[0.5,0,0],[0.995,0.63,0],[0.72,0.99,0],[0.5,1,0],[0.28,0.99,0]];shape=mxgraph.kubernetes.icon2;kubernetesLabel=1;prIcon=deploy;fontSize=10;" vertex="1" parent="1">
          <mxGeometry x="360" y="119" width="41.67" height="40" as="geometry" />
        </mxCell>
        <mxCell id="DXQPKdHqUTOvbUS4N7-0-47" value="" style="aspect=fixed;sketch=0;html=1;dashed=0;whitespace=wrap;verticalLabelPosition=bottom;verticalAlign=top;fillColor=#2875E2;strokeColor=#ffffff;points=[[0.005,0.63,0],[0.1,0.2,0],[0.9,0.2,0],[0.5,0,0],[0.995,0.63,0],[0.72,0.99,0],[0.5,1,0],[0.28,0.99,0]];shape=mxgraph.kubernetes.icon2;kubernetesLabel=1;prIcon=pod" vertex="1" parent="1">
          <mxGeometry x="320" y="79" width="41.67" height="40" as="geometry" />
        </mxCell>
        <mxCell id="DXQPKdHqUTOvbUS4N7-0-48" value="" style="aspect=fixed;sketch=0;html=1;dashed=0;whitespace=wrap;verticalLabelPosition=bottom;verticalAlign=top;fillColor=#2875E2;strokeColor=#ffffff;points=[[0.005,0.63,0],[0.1,0.2,0],[0.9,0.2,0],[0.5,0,0],[0.995,0.63,0],[0.72,0.99,0],[0.5,1,0],[0.28,0.99,0]];shape=mxgraph.kubernetes.icon2;kubernetesLabel=1;prIcon=pod" vertex="1" parent="1">
          <mxGeometry x="400" y="79" width="41.67" height="40" as="geometry" />
        </mxCell>
        <mxCell id="DXQPKdHqUTOvbUS4N7-0-49" style="rounded=0;orthogonalLoop=1;jettySize=auto;html=1;exitX=0.9;exitY=0.2;exitDx=0;exitDy=0;exitPerimeter=0;entryX=0.28;entryY=0.99;entryDx=0;entryDy=0;entryPerimeter=0;strokeColor=default;endArrow=none;startFill=0;" edge="1" parent="1" source="DXQPKdHqUTOvbUS4N7-0-46" target="DXQPKdHqUTOvbUS4N7-0-48">
          <mxGeometry relative="1" as="geometry" />
        </mxCell>
        <mxCell id="DXQPKdHqUTOvbUS4N7-0-50" style="rounded=0;orthogonalLoop=1;jettySize=auto;html=1;exitX=0.1;exitY=0.2;exitDx=0;exitDy=0;exitPerimeter=0;entryX=0.72;entryY=0.99;entryDx=0;entryDy=0;entryPerimeter=0;endArrow=none;startFill=0;" edge="1" parent="1" source="DXQPKdHqUTOvbUS4N7-0-46" target="DXQPKdHqUTOvbUS4N7-0-47">
          <mxGeometry relative="1" as="geometry" />
        </mxCell>
        <mxCell id="DXQPKdHqUTOvbUS4N7-0-51" value="PostgreSQL" style="aspect=fixed;sketch=0;html=1;dashed=0;whitespace=wrap;verticalLabelPosition=bottom;verticalAlign=top;fillColor=#2875E2;strokeColor=#ffffff;points=[[0.005,0.63,0],[0.1,0.2,0],[0.9,0.2,0],[0.5,0,0],[0.995,0.63,0],[0.72,0.99,0],[0.5,1,0],[0.28,0.99,0]];shape=mxgraph.kubernetes.icon2;prIcon=pv;fontSize=7;" vertex="1" parent="1">
          <mxGeometry x="360.41999999999996" y="41" width="39.58" height="38" as="geometry" />
        </mxCell>
        <mxCell id="DXQPKdHqUTOvbUS4N7-0-52" style="rounded=0;orthogonalLoop=1;jettySize=auto;html=1;exitX=0.1;exitY=0.2;exitDx=0;exitDy=0;exitPerimeter=0;entryX=0.72;entryY=0.99;entryDx=0;entryDy=0;entryPerimeter=0;endArrow=none;startFill=0;" edge="1" parent="1" source="DXQPKdHqUTOvbUS4N7-0-48" target="DXQPKdHqUTOvbUS4N7-0-51">
          <mxGeometry relative="1" as="geometry" />
        </mxCell>
        <mxCell id="DXQPKdHqUTOvbUS4N7-0-53" style="rounded=0;orthogonalLoop=1;jettySize=auto;html=1;exitX=0.9;exitY=0.2;exitDx=0;exitDy=0;exitPerimeter=0;entryX=0.28;entryY=0.99;entryDx=0;entryDy=0;entryPerimeter=0;endArrow=none;startFill=0;" edge="1" parent="1" source="DXQPKdHqUTOvbUS4N7-0-47" target="DXQPKdHqUTOvbUS4N7-0-51">
          <mxGeometry relative="1" as="geometry" />
        </mxCell>
        <mxCell id="DXQPKdHqUTOvbUS4N7-0-55" value="Store" style="aspect=fixed;sketch=0;html=1;dashed=0;whitespace=wrap;verticalLabelPosition=bottom;verticalAlign=top;fillColor=#2875E2;strokeColor=#ffffff;points=[[0.005,0.63,0],[0.1,0.2,0],[0.9,0.2,0],[0.5,0,0],[0.995,0.63,0],[0.72,0.99,0],[0.5,1,0],[0.28,0.99,0]];shape=mxgraph.kubernetes.icon2;kubernetesLabel=1;prIcon=deploy;fontSize=10;" vertex="1" parent="1">
          <mxGeometry x="520" y="118" width="41.67" height="40" as="geometry" />
        </mxCell>
        <mxCell id="DXQPKdHqUTOvbUS4N7-0-56" value="" style="aspect=fixed;sketch=0;html=1;dashed=0;whitespace=wrap;verticalLabelPosition=bottom;verticalAlign=top;fillColor=#2875E2;strokeColor=#ffffff;points=[[0.005,0.63,0],[0.1,0.2,0],[0.9,0.2,0],[0.5,0,0],[0.995,0.63,0],[0.72,0.99,0],[0.5,1,0],[0.28,0.99,0]];shape=mxgraph.kubernetes.icon2;kubernetesLabel=1;prIcon=pod" vertex="1" parent="1">
          <mxGeometry x="480" y="78" width="41.67" height="40" as="geometry" />
        </mxCell>
        <mxCell id="DXQPKdHqUTOvbUS4N7-0-57" value="" style="aspect=fixed;sketch=0;html=1;dashed=0;whitespace=wrap;verticalLabelPosition=bottom;verticalAlign=top;fillColor=#2875E2;strokeColor=#ffffff;points=[[0.005,0.63,0],[0.1,0.2,0],[0.9,0.2,0],[0.5,0,0],[0.995,0.63,0],[0.72,0.99,0],[0.5,1,0],[0.28,0.99,0]];shape=mxgraph.kubernetes.icon2;kubernetesLabel=1;prIcon=pod" vertex="1" parent="1">
          <mxGeometry x="560" y="78" width="41.67" height="40" as="geometry" />
        </mxCell>
        <mxCell id="DXQPKdHqUTOvbUS4N7-0-58" style="rounded=0;orthogonalLoop=1;jettySize=auto;html=1;exitX=0.9;exitY=0.2;exitDx=0;exitDy=0;exitPerimeter=0;entryX=0.28;entryY=0.99;entryDx=0;entryDy=0;entryPerimeter=0;strokeColor=default;endArrow=none;startFill=0;" edge="1" parent="1" source="DXQPKdHqUTOvbUS4N7-0-55" target="DXQPKdHqUTOvbUS4N7-0-57">
          <mxGeometry relative="1" as="geometry" />
        </mxCell>
        <mxCell id="DXQPKdHqUTOvbUS4N7-0-59" style="rounded=0;orthogonalLoop=1;jettySize=auto;html=1;exitX=0.1;exitY=0.2;exitDx=0;exitDy=0;exitPerimeter=0;entryX=0.72;entryY=0.99;entryDx=0;entryDy=0;entryPerimeter=0;endArrow=none;startFill=0;" edge="1" parent="1" source="DXQPKdHqUTOvbUS4N7-0-55" target="DXQPKdHqUTOvbUS4N7-0-56">
          <mxGeometry relative="1" as="geometry" />
        </mxCell>
        <mxCell id="DXQPKdHqUTOvbUS4N7-0-60" value="PostgreSQL" style="aspect=fixed;sketch=0;html=1;dashed=0;whitespace=wrap;verticalLabelPosition=bottom;verticalAlign=top;fillColor=#2875E2;strokeColor=#ffffff;points=[[0.005,0.63,0],[0.1,0.2,0],[0.9,0.2,0],[0.5,0,0],[0.995,0.63,0],[0.72,0.99,0],[0.5,1,0],[0.28,0.99,0]];shape=mxgraph.kubernetes.icon2;prIcon=pv;fontSize=7;" vertex="1" parent="1">
          <mxGeometry x="520.42" y="40" width="39.58" height="38" as="geometry" />
        </mxCell>
        <mxCell id="DXQPKdHqUTOvbUS4N7-0-61" style="rounded=0;orthogonalLoop=1;jettySize=auto;html=1;exitX=0.1;exitY=0.2;exitDx=0;exitDy=0;exitPerimeter=0;entryX=0.72;entryY=0.99;entryDx=0;entryDy=0;entryPerimeter=0;endArrow=none;startFill=0;" edge="1" parent="1" source="DXQPKdHqUTOvbUS4N7-0-57" target="DXQPKdHqUTOvbUS4N7-0-60">
          <mxGeometry relative="1" as="geometry" />
        </mxCell>
        <mxCell id="DXQPKdHqUTOvbUS4N7-0-62" style="rounded=0;orthogonalLoop=1;jettySize=auto;html=1;exitX=0.9;exitY=0.2;exitDx=0;exitDy=0;exitPerimeter=0;entryX=0.28;entryY=0.99;entryDx=0;entryDy=0;entryPerimeter=0;endArrow=none;startFill=0;" edge="1" parent="1" source="DXQPKdHqUTOvbUS4N7-0-56" target="DXQPKdHqUTOvbUS4N7-0-60">
          <mxGeometry relative="1" as="geometry" />
        </mxCell>
        <mxCell id="DXQPKdHqUTOvbUS4N7-0-63" value="Orders" style="aspect=fixed;sketch=0;html=1;dashed=0;whitespace=wrap;verticalLabelPosition=bottom;verticalAlign=top;fillColor=#2875E2;strokeColor=#ffffff;points=[[0.005,0.63,0],[0.1,0.2,0],[0.9,0.2,0],[0.5,0,0],[0.995,0.63,0],[0.72,0.99,0],[0.5,1,0],[0.28,0.99,0]];shape=mxgraph.kubernetes.icon2;kubernetesLabel=1;prIcon=deploy;fontSize=10;" vertex="1" parent="1">
          <mxGeometry x="199.38" y="279" width="41.67" height="40" as="geometry" />
        </mxCell>
        <mxCell id="DXQPKdHqUTOvbUS4N7-0-64" value="" style="aspect=fixed;sketch=0;html=1;dashed=0;whitespace=wrap;verticalLabelPosition=bottom;verticalAlign=top;fillColor=#2875E2;strokeColor=#ffffff;points=[[0.005,0.63,0],[0.1,0.2,0],[0.9,0.2,0],[0.5,0,0],[0.995,0.63,0],[0.72,0.99,0],[0.5,1,0],[0.28,0.99,0]];shape=mxgraph.kubernetes.icon2;kubernetesLabel=1;prIcon=pod" vertex="1" parent="1">
          <mxGeometry x="159.38" y="239" width="41.67" height="40" as="geometry" />
        </mxCell>
        <mxCell id="DXQPKdHqUTOvbUS4N7-0-65" value="" style="aspect=fixed;sketch=0;html=1;dashed=0;whitespace=wrap;verticalLabelPosition=bottom;verticalAlign=top;fillColor=#2875E2;strokeColor=#ffffff;points=[[0.005,0.63,0],[0.1,0.2,0],[0.9,0.2,0],[0.5,0,0],[0.995,0.63,0],[0.72,0.99,0],[0.5,1,0],[0.28,0.99,0]];shape=mxgraph.kubernetes.icon2;kubernetesLabel=1;prIcon=pod" vertex="1" parent="1">
          <mxGeometry x="239.38" y="239" width="41.67" height="40" as="geometry" />
        </mxCell>
        <mxCell id="DXQPKdHqUTOvbUS4N7-0-66" style="rounded=0;orthogonalLoop=1;jettySize=auto;html=1;exitX=0.9;exitY=0.2;exitDx=0;exitDy=0;exitPerimeter=0;entryX=0.28;entryY=0.99;entryDx=0;entryDy=0;entryPerimeter=0;strokeColor=default;endArrow=none;startFill=0;" edge="1" parent="1" source="DXQPKdHqUTOvbUS4N7-0-63" target="DXQPKdHqUTOvbUS4N7-0-65">
          <mxGeometry relative="1" as="geometry" />
        </mxCell>
        <mxCell id="DXQPKdHqUTOvbUS4N7-0-67" style="rounded=0;orthogonalLoop=1;jettySize=auto;html=1;exitX=0.1;exitY=0.2;exitDx=0;exitDy=0;exitPerimeter=0;entryX=0.72;entryY=0.99;entryDx=0;entryDy=0;entryPerimeter=0;endArrow=none;startFill=0;" edge="1" parent="1" source="DXQPKdHqUTOvbUS4N7-0-63" target="DXQPKdHqUTOvbUS4N7-0-64">
          <mxGeometry relative="1" as="geometry" />
        </mxCell>
        <mxCell id="DXQPKdHqUTOvbUS4N7-0-68" value="PostgreSQL" style="aspect=fixed;sketch=0;html=1;dashed=0;whitespace=wrap;verticalLabelPosition=bottom;verticalAlign=top;fillColor=#2875E2;strokeColor=#ffffff;points=[[0.005,0.63,0],[0.1,0.2,0],[0.9,0.2,0],[0.5,0,0],[0.995,0.63,0],[0.72,0.99,0],[0.5,1,0],[0.28,0.99,0]];shape=mxgraph.kubernetes.icon2;prIcon=pv;fontSize=7;" vertex="1" parent="1">
          <mxGeometry x="199.79999999999995" y="201" width="39.58" height="38" as="geometry" />
        </mxCell>
        <mxCell id="DXQPKdHqUTOvbUS4N7-0-69" style="rounded=0;orthogonalLoop=1;jettySize=auto;html=1;exitX=0.1;exitY=0.2;exitDx=0;exitDy=0;exitPerimeter=0;entryX=0.72;entryY=0.99;entryDx=0;entryDy=0;entryPerimeter=0;endArrow=none;startFill=0;" edge="1" parent="1" source="DXQPKdHqUTOvbUS4N7-0-65" target="DXQPKdHqUTOvbUS4N7-0-68">
          <mxGeometry relative="1" as="geometry" />
        </mxCell>
        <mxCell id="DXQPKdHqUTOvbUS4N7-0-70" style="rounded=0;orthogonalLoop=1;jettySize=auto;html=1;exitX=0.9;exitY=0.2;exitDx=0;exitDy=0;exitPerimeter=0;entryX=0.28;entryY=0.99;entryDx=0;entryDy=0;entryPerimeter=0;endArrow=none;startFill=0;" edge="1" parent="1" source="DXQPKdHqUTOvbUS4N7-0-64" target="DXQPKdHqUTOvbUS4N7-0-68">
          <mxGeometry relative="1" as="geometry" />
        </mxCell>
        <mxCell id="DXQPKdHqUTOvbUS4N7-0-71" value="Library" style="aspect=fixed;sketch=0;html=1;dashed=0;whitespace=wrap;verticalLabelPosition=bottom;verticalAlign=top;fillColor=#2875E2;strokeColor=#ffffff;points=[[0.005,0.63,0],[0.1,0.2,0],[0.9,0.2,0],[0.5,0,0],[0.995,0.63,0],[0.72,0.99,0],[0.5,1,0],[0.28,0.99,0]];shape=mxgraph.kubernetes.icon2;kubernetesLabel=1;prIcon=deploy;fontSize=10;" vertex="1" parent="1">
          <mxGeometry x="359.38" y="279" width="41.67" height="40" as="geometry" />
        </mxCell>
        <mxCell id="DXQPKdHqUTOvbUS4N7-0-72" value="" style="aspect=fixed;sketch=0;html=1;dashed=0;whitespace=wrap;verticalLabelPosition=bottom;verticalAlign=top;fillColor=#2875E2;strokeColor=#ffffff;points=[[0.005,0.63,0],[0.1,0.2,0],[0.9,0.2,0],[0.5,0,0],[0.995,0.63,0],[0.72,0.99,0],[0.5,1,0],[0.28,0.99,0]];shape=mxgraph.kubernetes.icon2;kubernetesLabel=1;prIcon=pod" vertex="1" parent="1">
          <mxGeometry x="319.38" y="239" width="41.67" height="40" as="geometry" />
        </mxCell>
        <mxCell id="DXQPKdHqUTOvbUS4N7-0-73" value="" style="aspect=fixed;sketch=0;html=1;dashed=0;whitespace=wrap;verticalLabelPosition=bottom;verticalAlign=top;fillColor=#2875E2;strokeColor=#ffffff;points=[[0.005,0.63,0],[0.1,0.2,0],[0.9,0.2,0],[0.5,0,0],[0.995,0.63,0],[0.72,0.99,0],[0.5,1,0],[0.28,0.99,0]];shape=mxgraph.kubernetes.icon2;kubernetesLabel=1;prIcon=pod" vertex="1" parent="1">
          <mxGeometry x="399.38" y="239" width="41.67" height="40" as="geometry" />
        </mxCell>
        <mxCell id="DXQPKdHqUTOvbUS4N7-0-74" style="rounded=0;orthogonalLoop=1;jettySize=auto;html=1;exitX=0.9;exitY=0.2;exitDx=0;exitDy=0;exitPerimeter=0;entryX=0.28;entryY=0.99;entryDx=0;entryDy=0;entryPerimeter=0;strokeColor=default;endArrow=none;startFill=0;" edge="1" parent="1" source="DXQPKdHqUTOvbUS4N7-0-71" target="DXQPKdHqUTOvbUS4N7-0-73">
          <mxGeometry relative="1" as="geometry" />
        </mxCell>
        <mxCell id="DXQPKdHqUTOvbUS4N7-0-75" style="rounded=0;orthogonalLoop=1;jettySize=auto;html=1;exitX=0.1;exitY=0.2;exitDx=0;exitDy=0;exitPerimeter=0;entryX=0.72;entryY=0.99;entryDx=0;entryDy=0;entryPerimeter=0;endArrow=none;startFill=0;" edge="1" parent="1" source="DXQPKdHqUTOvbUS4N7-0-71" target="DXQPKdHqUTOvbUS4N7-0-72">
          <mxGeometry relative="1" as="geometry" />
        </mxCell>
        <mxCell id="DXQPKdHqUTOvbUS4N7-0-76" value="PostgreSQL" style="aspect=fixed;sketch=0;html=1;dashed=0;whitespace=wrap;verticalLabelPosition=bottom;verticalAlign=top;fillColor=#2875E2;strokeColor=#ffffff;points=[[0.005,0.63,0],[0.1,0.2,0],[0.9,0.2,0],[0.5,0,0],[0.995,0.63,0],[0.72,0.99,0],[0.5,1,0],[0.28,0.99,0]];shape=mxgraph.kubernetes.icon2;prIcon=pv;fontSize=7;" vertex="1" parent="1">
          <mxGeometry x="359.79999999999995" y="201" width="39.58" height="38" as="geometry" />
        </mxCell>
        <mxCell id="DXQPKdHqUTOvbUS4N7-0-77" style="rounded=0;orthogonalLoop=1;jettySize=auto;html=1;exitX=0.1;exitY=0.2;exitDx=0;exitDy=0;exitPerimeter=0;entryX=0.72;entryY=0.99;entryDx=0;entryDy=0;entryPerimeter=0;endArrow=none;startFill=0;" edge="1" parent="1" source="DXQPKdHqUTOvbUS4N7-0-73" target="DXQPKdHqUTOvbUS4N7-0-76">
          <mxGeometry relative="1" as="geometry" />
        </mxCell>
        <mxCell id="DXQPKdHqUTOvbUS4N7-0-78" style="rounded=0;orthogonalLoop=1;jettySize=auto;html=1;exitX=0.9;exitY=0.2;exitDx=0;exitDy=0;exitPerimeter=0;entryX=0.28;entryY=0.99;entryDx=0;entryDy=0;entryPerimeter=0;endArrow=none;startFill=0;" edge="1" parent="1" source="DXQPKdHqUTOvbUS4N7-0-72" target="DXQPKdHqUTOvbUS4N7-0-76">
          <mxGeometry relative="1" as="geometry" />
        </mxCell>
        <mxCell id="DXQPKdHqUTOvbUS4N7-0-79" value="Social" style="aspect=fixed;sketch=0;html=1;dashed=0;whitespace=wrap;verticalLabelPosition=bottom;verticalAlign=top;fillColor=#2875E2;strokeColor=#ffffff;points=[[0.005,0.63,0],[0.1,0.2,0],[0.9,0.2,0],[0.5,0,0],[0.995,0.63,0],[0.72,0.99,0],[0.5,1,0],[0.28,0.99,0]];shape=mxgraph.kubernetes.icon2;kubernetesLabel=1;prIcon=deploy;fontSize=10;" vertex="1" parent="1">
          <mxGeometry x="519.38" y="278" width="41.67" height="40" as="geometry" />
        </mxCell>
        <mxCell id="DXQPKdHqUTOvbUS4N7-0-80" value="" style="aspect=fixed;sketch=0;html=1;dashed=0;whitespace=wrap;verticalLabelPosition=bottom;verticalAlign=top;fillColor=#2875E2;strokeColor=#ffffff;points=[[0.005,0.63,0],[0.1,0.2,0],[0.9,0.2,0],[0.5,0,0],[0.995,0.63,0],[0.72,0.99,0],[0.5,1,0],[0.28,0.99,0]];shape=mxgraph.kubernetes.icon2;kubernetesLabel=1;prIcon=pod" vertex="1" parent="1">
          <mxGeometry x="479.38" y="238" width="41.67" height="40" as="geometry" />
        </mxCell>
        <mxCell id="DXQPKdHqUTOvbUS4N7-0-81" value="" style="aspect=fixed;sketch=0;html=1;dashed=0;whitespace=wrap;verticalLabelPosition=bottom;verticalAlign=top;fillColor=#2875E2;strokeColor=#ffffff;points=[[0.005,0.63,0],[0.1,0.2,0],[0.9,0.2,0],[0.5,0,0],[0.995,0.63,0],[0.72,0.99,0],[0.5,1,0],[0.28,0.99,0]];shape=mxgraph.kubernetes.icon2;kubernetesLabel=1;prIcon=pod" vertex="1" parent="1">
          <mxGeometry x="559.38" y="238" width="41.67" height="40" as="geometry" />
        </mxCell>
        <mxCell id="DXQPKdHqUTOvbUS4N7-0-82" style="rounded=0;orthogonalLoop=1;jettySize=auto;html=1;exitX=0.9;exitY=0.2;exitDx=0;exitDy=0;exitPerimeter=0;entryX=0.28;entryY=0.99;entryDx=0;entryDy=0;entryPerimeter=0;strokeColor=default;endArrow=none;startFill=0;" edge="1" parent="1" source="DXQPKdHqUTOvbUS4N7-0-79" target="DXQPKdHqUTOvbUS4N7-0-81">
          <mxGeometry relative="1" as="geometry" />
        </mxCell>
        <mxCell id="DXQPKdHqUTOvbUS4N7-0-83" style="rounded=0;orthogonalLoop=1;jettySize=auto;html=1;exitX=0.1;exitY=0.2;exitDx=0;exitDy=0;exitPerimeter=0;entryX=0.72;entryY=0.99;entryDx=0;entryDy=0;entryPerimeter=0;endArrow=none;startFill=0;" edge="1" parent="1" source="DXQPKdHqUTOvbUS4N7-0-79" target="DXQPKdHqUTOvbUS4N7-0-80">
          <mxGeometry relative="1" as="geometry" />
        </mxCell>
        <mxCell id="DXQPKdHqUTOvbUS4N7-0-84" value="PostgreSQL" style="aspect=fixed;sketch=0;html=1;dashed=0;whitespace=wrap;verticalLabelPosition=bottom;verticalAlign=top;fillColor=#2875E2;strokeColor=#ffffff;points=[[0.005,0.63,0],[0.1,0.2,0],[0.9,0.2,0],[0.5,0,0],[0.995,0.63,0],[0.72,0.99,0],[0.5,1,0],[0.28,0.99,0]];shape=mxgraph.kubernetes.icon2;prIcon=pv;fontSize=7;" vertex="1" parent="1">
          <mxGeometry x="519.8" y="200" width="39.58" height="38" as="geometry" />
        </mxCell>
        <mxCell id="DXQPKdHqUTOvbUS4N7-0-85" style="rounded=0;orthogonalLoop=1;jettySize=auto;html=1;exitX=0.1;exitY=0.2;exitDx=0;exitDy=0;exitPerimeter=0;entryX=0.72;entryY=0.99;entryDx=0;entryDy=0;entryPerimeter=0;endArrow=none;startFill=0;" edge="1" parent="1" source="DXQPKdHqUTOvbUS4N7-0-81" target="DXQPKdHqUTOvbUS4N7-0-84">
          <mxGeometry relative="1" as="geometry" />
        </mxCell>
        <mxCell id="DXQPKdHqUTOvbUS4N7-0-86" style="rounded=0;orthogonalLoop=1;jettySize=auto;html=1;exitX=0.9;exitY=0.2;exitDx=0;exitDy=0;exitPerimeter=0;entryX=0.28;entryY=0.99;entryDx=0;entryDy=0;entryPerimeter=0;endArrow=none;startFill=0;" edge="1" parent="1" source="DXQPKdHqUTOvbUS4N7-0-80" target="DXQPKdHqUTOvbUS4N7-0-84">
          <mxGeometry relative="1" as="geometry" />
        </mxCell>
        <mxCell id="DXQPKdHqUTOvbUS4N7-0-95" value="Users" style="aspect=fixed;sketch=0;html=1;dashed=0;whitespace=wrap;verticalLabelPosition=bottom;verticalAlign=top;fillColor=#2875E2;strokeColor=#ffffff;points=[[0.005,0.63,0],[0.1,0.2,0],[0.9,0.2,0],[0.5,0,0],[0.995,0.63,0],[0.72,0.99,0],[0.5,1,0],[0.28,0.99,0]];shape=mxgraph.kubernetes.icon2;kubernetesLabel=1;prIcon=deploy;fontSize=10;" vertex="1" parent="1">
          <mxGeometry x="600" y="397" width="41.67" height="40" as="geometry" />
        </mxCell>
        <mxCell id="DXQPKdHqUTOvbUS4N7-0-96" value="" style="aspect=fixed;sketch=0;html=1;dashed=0;whitespace=wrap;verticalLabelPosition=bottom;verticalAlign=top;fillColor=#2875E2;strokeColor=#ffffff;points=[[0.005,0.63,0],[0.1,0.2,0],[0.9,0.2,0],[0.5,0,0],[0.995,0.63,0],[0.72,0.99,0],[0.5,1,0],[0.28,0.99,0]];shape=mxgraph.kubernetes.icon2;kubernetesLabel=1;prIcon=pod" vertex="1" parent="1">
          <mxGeometry x="560" y="357" width="41.67" height="40" as="geometry" />
        </mxCell>
        <mxCell id="DXQPKdHqUTOvbUS4N7-0-97" value="" style="aspect=fixed;sketch=0;html=1;dashed=0;whitespace=wrap;verticalLabelPosition=bottom;verticalAlign=top;fillColor=#2875E2;strokeColor=#ffffff;points=[[0.005,0.63,0],[0.1,0.2,0],[0.9,0.2,0],[0.5,0,0],[0.995,0.63,0],[0.72,0.99,0],[0.5,1,0],[0.28,0.99,0]];shape=mxgraph.kubernetes.icon2;kubernetesLabel=1;prIcon=pod" vertex="1" parent="1">
          <mxGeometry x="640" y="357" width="41.67" height="40" as="geometry" />
        </mxCell>
        <mxCell id="DXQPKdHqUTOvbUS4N7-0-98" style="rounded=0;orthogonalLoop=1;jettySize=auto;html=1;exitX=0.9;exitY=0.2;exitDx=0;exitDy=0;exitPerimeter=0;entryX=0.28;entryY=0.99;entryDx=0;entryDy=0;entryPerimeter=0;strokeColor=default;endArrow=none;startFill=0;" edge="1" parent="1" source="DXQPKdHqUTOvbUS4N7-0-95" target="DXQPKdHqUTOvbUS4N7-0-97">
          <mxGeometry relative="1" as="geometry" />
        </mxCell>
        <mxCell id="DXQPKdHqUTOvbUS4N7-0-99" style="rounded=0;orthogonalLoop=1;jettySize=auto;html=1;exitX=0.1;exitY=0.2;exitDx=0;exitDy=0;exitPerimeter=0;entryX=0.72;entryY=0.99;entryDx=0;entryDy=0;entryPerimeter=0;endArrow=none;startFill=0;" edge="1" parent="1" source="DXQPKdHqUTOvbUS4N7-0-95" target="DXQPKdHqUTOvbUS4N7-0-96">
          <mxGeometry relative="1" as="geometry" />
        </mxCell>
        <mxCell id="DXQPKdHqUTOvbUS4N7-0-100" value="PostgreSQL" style="aspect=fixed;sketch=0;html=1;dashed=0;whitespace=wrap;verticalLabelPosition=bottom;verticalAlign=top;fillColor=#2875E2;strokeColor=#ffffff;points=[[0.005,0.63,0],[0.1,0.2,0],[0.9,0.2,0],[0.5,0,0],[0.995,0.63,0],[0.72,0.99,0],[0.5,1,0],[0.28,0.99,0]];shape=mxgraph.kubernetes.icon2;prIcon=pv;fontSize=7;" vertex="1" parent="1">
          <mxGeometry x="600.42" y="319" width="39.58" height="38" as="geometry" />
        </mxCell>
        <mxCell id="DXQPKdHqUTOvbUS4N7-0-101" style="rounded=0;orthogonalLoop=1;jettySize=auto;html=1;exitX=0.1;exitY=0.2;exitDx=0;exitDy=0;exitPerimeter=0;entryX=0.72;entryY=0.99;entryDx=0;entryDy=0;entryPerimeter=0;endArrow=none;startFill=0;" edge="1" parent="1" source="DXQPKdHqUTOvbUS4N7-0-97" target="DXQPKdHqUTOvbUS4N7-0-100">
          <mxGeometry relative="1" as="geometry" />
        </mxCell>
        <mxCell id="DXQPKdHqUTOvbUS4N7-0-102" style="rounded=0;orthogonalLoop=1;jettySize=auto;html=1;exitX=0.9;exitY=0.2;exitDx=0;exitDy=0;exitPerimeter=0;entryX=0.28;entryY=0.99;entryDx=0;entryDy=0;entryPerimeter=0;endArrow=none;startFill=0;" edge="1" parent="1" source="DXQPKdHqUTOvbUS4N7-0-96" target="DXQPKdHqUTOvbUS4N7-0-100">
          <mxGeometry relative="1" as="geometry" />
        </mxCell>
        <mxCell id="DXQPKdHqUTOvbUS4N7-0-103" value="RabbitMQ" style="aspect=fixed;sketch=0;html=1;dashed=0;whitespace=wrap;verticalLabelPosition=bottom;verticalAlign=top;fillColor=#2875E2;strokeColor=#ffffff;points=[[0.005,0.63,0],[0.1,0.2,0],[0.9,0.2,0],[0.5,0,0],[0.995,0.63,0],[0.72,0.99,0],[0.5,1,0],[0.28,0.99,0]];shape=mxgraph.kubernetes.icon2;prIcon=ing;fontSize=10;" vertex="1" parent="1">
          <mxGeometry x="439.8" y="159" width="39.58" height="38" as="geometry" />
        </mxCell>
        <mxCell id="DXQPKdHqUTOvbUS4N7-0-104" value="Client (web browser)" style="aspect=fixed;sketch=0;html=1;dashed=0;whitespace=wrap;verticalLabelPosition=bottom;verticalAlign=top;fillColor=#2875E2;strokeColor=#ffffff;points=[[0.005,0.63,0],[0.1,0.2,0],[0.9,0.2,0],[0.5,0,0],[0.995,0.63,0],[0.72,0.99,0],[0.5,1,0],[0.28,0.99,0]];shape=mxgraph.kubernetes.icon2;prIcon=user;fontSize=10;" vertex="1" parent="1">
          <mxGeometry x="358.43" y="437" width="44.8" height="43" as="geometry" />
        </mxCell>
        <mxCell id="DXQPKdHqUTOvbUS4N7-0-105" value="NGINX" style="aspect=fixed;sketch=0;html=1;dashed=0;whitespace=wrap;verticalLabelPosition=bottom;verticalAlign=top;fillColor=#2875E2;strokeColor=#ffffff;points=[[0.005,0.63,0],[0.1,0.2,0],[0.9,0.2,0],[0.5,0,0],[0.995,0.63,0],[0.72,0.99,0],[0.5,1,0],[0.28,0.99,0]];shape=mxgraph.kubernetes.icon2;kubernetesLabel=1;prIcon=api;fontSize=10;" vertex="1" parent="1">
          <mxGeometry x="360.42" y="360" width="38.54" height="37" as="geometry" />
        </mxCell>
        <mxCell id="DXQPKdHqUTOvbUS4N7-0-106" style="rounded=0;orthogonalLoop=1;jettySize=auto;html=1;exitX=0.72;exitY=0.99;exitDx=0;exitDy=0;exitPerimeter=0;entryX=0.1;entryY=0.2;entryDx=0;entryDy=0;entryPerimeter=0;endArrow=none;startFill=0;opacity=20;" edge="1" parent="1" source="DXQPKdHqUTOvbUS4N7-0-63" target="DXQPKdHqUTOvbUS4N7-0-105">
          <mxGeometry relative="1" as="geometry" />
        </mxCell>
        <mxCell id="DXQPKdHqUTOvbUS4N7-0-107" style="rounded=0;orthogonalLoop=1;jettySize=auto;html=1;exitX=0.5;exitY=1;exitDx=0;exitDy=0;exitPerimeter=0;entryX=0.5;entryY=0;entryDx=0;entryDy=0;entryPerimeter=0;endArrow=none;startFill=0;opacity=20;" edge="1" parent="1" source="DXQPKdHqUTOvbUS4N7-0-71" target="DXQPKdHqUTOvbUS4N7-0-105">
          <mxGeometry relative="1" as="geometry" />
        </mxCell>
        <mxCell id="DXQPKdHqUTOvbUS4N7-0-108" style="rounded=0;orthogonalLoop=1;jettySize=auto;html=1;exitX=0.28;exitY=0.99;exitDx=0;exitDy=0;exitPerimeter=0;entryX=0.9;entryY=0.2;entryDx=0;entryDy=0;entryPerimeter=0;endArrow=none;startFill=0;opacity=20;" edge="1" parent="1" source="DXQPKdHqUTOvbUS4N7-0-79" target="DXQPKdHqUTOvbUS4N7-0-105">
          <mxGeometry relative="1" as="geometry" />
        </mxCell>
        <mxCell id="DXQPKdHqUTOvbUS4N7-0-109" style="rounded=0;orthogonalLoop=1;jettySize=auto;html=1;exitX=0.72;exitY=0.99;exitDx=0;exitDy=0;exitPerimeter=0;entryX=0.1;entryY=0.2;entryDx=0;entryDy=0;entryPerimeter=0;endArrow=none;startFill=0;opacity=20;" edge="1" parent="1" source="DXQPKdHqUTOvbUS4N7-0-32" target="DXQPKdHqUTOvbUS4N7-0-105">
          <mxGeometry relative="1" as="geometry" />
        </mxCell>
        <mxCell id="DXQPKdHqUTOvbUS4N7-0-110" style="rounded=0;orthogonalLoop=1;jettySize=auto;html=1;exitX=0.5;exitY=1;exitDx=0;exitDy=0;exitPerimeter=0;entryX=0.5;entryY=0;entryDx=0;entryDy=0;entryPerimeter=0;endArrow=none;startFill=0;opacity=20;" edge="1" parent="1" source="DXQPKdHqUTOvbUS4N7-0-46" target="DXQPKdHqUTOvbUS4N7-0-105">
          <mxGeometry relative="1" as="geometry" />
        </mxCell>
        <mxCell id="DXQPKdHqUTOvbUS4N7-0-111" style="rounded=0;orthogonalLoop=1;jettySize=auto;html=1;exitX=0.28;exitY=0.99;exitDx=0;exitDy=0;exitPerimeter=0;entryX=0.9;entryY=0.2;entryDx=0;entryDy=0;entryPerimeter=0;endArrow=none;startFill=0;opacity=20;" edge="1" parent="1" source="DXQPKdHqUTOvbUS4N7-0-55" target="DXQPKdHqUTOvbUS4N7-0-105">
          <mxGeometry relative="1" as="geometry" />
        </mxCell>
        <mxCell id="DXQPKdHqUTOvbUS4N7-0-112" value="Validate + Enrich" style="rounded=0;orthogonalLoop=1;jettySize=auto;html=1;exitX=0.995;exitY=0.63;exitDx=0;exitDy=0;exitPerimeter=0;entryX=0.005;entryY=0.63;entryDx=0;entryDy=0;entryPerimeter=0;endArrow=none;startFill=0;opacity=40;" edge="1" parent="1" source="DXQPKdHqUTOvbUS4N7-0-105" target="DXQPKdHqUTOvbUS4N7-0-96">
          <mxGeometry relative="1" as="geometry" />
        </mxCell>
        <mxCell id="DXQPKdHqUTOvbUS4N7-0-113" style="rounded=0;orthogonalLoop=1;jettySize=auto;html=1;exitX=0.5;exitY=1;exitDx=0;exitDy=0;exitPerimeter=0;entryX=0.5;entryY=0;entryDx=0;entryDy=0;entryPerimeter=0;endArrow=none;startFill=0;opacity=40;" edge="1" parent="1" source="DXQPKdHqUTOvbUS4N7-0-105" target="DXQPKdHqUTOvbUS4N7-0-104">
          <mxGeometry relative="1" as="geometry" />
        </mxCell>
      </root>
    </mxGraphModel>
  </diagram>
</mxfile>
